<svg width="20" height="20" viewBox="0 0 20 20" fill="none" xmlns="http://www.w3.org/2000/svg">
<path d="M7.0938 1.19592C9.35728 0.293767 11.9939 0.356142 14.197 1.40398C13.5692 1.3086 12.9307 1.38051 12.3093 1.48557C10.6216 1.80431 9.0177 2.5984 7.76404 3.77814C6.56199 4.95969 5.71964 6.52741 5.48172 8.20468C5.32436 9.39314 5.47023 10.6397 6.00352 11.7214C6.55307 12.8564 7.52041 13.7872 8.68632 14.2677C9.80978 14.7431 11.113 14.7378 12.2509 14.3135C13.9584 13.6869 15.1852 11.9949 15.3255 10.1872C15.4138 9.00249 15.1256 7.74216 14.3296 6.83347C13.5698 5.94401 12.4585 5.45407 11.3464 5.17519C11.2868 4.07838 11.8035 2.99483 12.623 2.28152C13.078 1.87117 13.6428 1.6096 14.2268 1.44222L14.2712 1.42691C15.943 2.22864 17.3636 3.55086 18.2687 5.17409C19.0442 6.55607 19.4486 8.1486 19.4085 9.73492C19.4009 11.7862 18.6341 13.8172 17.3198 15.3857C16.0769 16.8815 14.3386 17.9575 12.4439 18.3884C10.5443 18.8267 8.50043 18.6376 6.72255 17.8302C4.98291 17.0533 3.50909 15.7026 2.57151 14.0411C1.79158 12.6604 1.37899 11.0685 1.41323 9.48031C1.41695 7.50148 2.11962 5.5379 3.34647 3.99049C4.32645 2.75491 5.6265 1.77246 7.0938 1.19592Z" fill="#E60000"/>
<path d="M12.3093 1.48558C12.9306 1.38053 13.5692 1.30866 14.197 1.40404L14.2872 1.4193L14.2268 1.44219C13.6428 1.60967 13.078 1.87118 12.623 2.28158C11.8035 2.99484 11.2868 4.07844 11.3464 5.17525C12.4584 5.45408 13.5698 5.94397 14.3296 6.83349C15.1256 7.74217 15.4138 9.0025 15.3255 10.1872C15.1852 11.9949 13.9584 13.6869 12.2509 14.3135C11.113 14.7379 9.80978 14.7431 8.68632 14.2677C7.52036 13.7873 6.55307 12.8565 6.00352 11.7214C5.47023 10.6397 5.32436 9.39315 5.48177 8.20469C5.71964 6.52743 6.56199 4.95971 7.76409 3.77815C9.0177 2.59842 10.6216 1.80433 12.3093 1.48558Z" fill="white"/>
</svg>
